<svg height="800pt" preserveAspectRatio="xMidYMid meet" viewBox="0 0 800 800" width="800pt" xmlns="http://www.w3.org/2000/svg"><g transform="matrix(.1 0 0 -.1 0 800)"><path d="m3390 7989c-636-39-1383-144-1965-276-110-25-210-48-223-50l-22-5v-690c0-652 1-689 18-684 160 47 617 139 967 195 929 148 1861 188 2730 115 606-50 1305-159 1818-283l117-28v688 687l-127 31c-258 61-605 126-983 185-293 46-774 95-1125 116-199 11-1009 11-1205-1z"/><path d="m3490 6509c-758-40-1671-172-2273-330l-38-10 4-1417c3-1515 1-1444 52-1712 39-204 137-550 157-550 4 0 26 37 48 83 21 45 66 130 98 188l59 105-32 160c-63 308-65 359-65 1675v1186l53 12c1168 283 2340 365 3482 245 455-48 1005-142 1428-246l47-11v-1141c0-1309-5-1414-71-1741-37-182-116-444-169-561-11-23-20-45-20-48 0-29-215-427-252-468-7-7-21-27-30-43-78-137-371-460-548-602-261-210-537-358-902-484l-98-34v-51c0-72-18-159-45-218-13-28-22-53-20-55 12-11 419 130 565 196 553 249 1007 631 1334 1123 91 136 131 201 167 270 13 25 27 47 32 48 4 2 7 11 7 21 0 9 4 21 9 26 18 20 131 287 175 416 52 154 107 362 131 499 52 295 49 184 52 1713 3 1279 2 1427-12 1427-8 0-70 13-138 29-500 120-1234 233-1797 276-458 35-1008 45-1390 24z"/><path d="m3770 6143c-506-11-1137-83-1739-199-101-19-190-33-198-30s-12 2-9-2c3-5-58-23-135-42l-140-33 4-1236c3-1122 5-1247 21-1356 30-201 57-322 69-304 1 2 43 65 91 139 87 132 227 333 292 418 35 46 44 41 44-22 0-101 78-296 172-434 64-92 199-232 286-295l62-46-47-32c-137-93-244-201-292-296-77-153-60-335 53-568 72-147 97-179 200-253 121-88 129-90 223-40 68 36 82 40 130 36 62-5 94-26 199-128 101-97 100-118-5-184l-39-25-17 25c-16 25-82 60-93 50-3-3-1-6 5-6 16 0 32-52 39-126l7-64 136-69c152-76 267-125 280-117 5 3 11 20 15 37 17 85 66 153 150 208 92 59 162 140 236 274 92 166 84 158 108 111 51-99 108-158 252-259 78-55 161-121 185-147 62-69 97-148 103-235l5-72 131 46c317 110 572 249 820 447 526 419 887 1029 1025 1731 58 295 61 370 61 1641v1152l-172 40c-465 110-979 189-1538 237-196 16-698 37-805 33-38-2-117-4-175-5zm1390-979c-20-92-98-183-177-208-13-4-23-11-23-16 0-25 109-17 184 14 19 8 38 11 43 8 4-4 5-4 2 0s20 34 51 65c30 32 65 78 77 103 32 65 27 28-6-58-57-143-156-237-298-281-97-31-104-29-148 35-66 95-186 174-267 174-20 0-39 4-42 8-13 22 108 170 172 211 52 33 138 55 178 45 22-6 19-9-33-40-69-41-140-113-135-137 8-43 150-47 238-6 55 26 139 106 169 163l20 37 3-33c2-18-1-56-8-84zm-2532-51c58-44 140-67 208-59 66 8 84 15 84 32 0 23-88 111-143 143-45 26-48 29-28 36 61 19 171-27 242-102 54-56 109-131 109-148 0-7-19-14-47-17-95-10-196-77-264-177-39-58-53-62-148-32-128 40-220 123-282 256-46 99-52 143-8 67 16-29 49-72 72-95s41-46 39-50c-1-5 2-6 7-2 6 3 23-1 38-8 62-32 205-45 188-17-3 5-26 19-51 32-92 46-154 146-154 250v49l48-63c26-34 66-77 90-95zm669-227c-28-42-57-148-57-206 0-106 45-169 164-230 38-19 89-54 114-77 25-24 51-43 56-44 6 0 5-3-1-6-7-2-32 12-55 32-24 20-72 50-108 66-130 61-134 63-162 120-37 72-46 157-24 233 9 31 21 54 25 52 5-3 9 6 9 19 0 32-14 31-70-4-79-51-153-140-178-215-48-146 28-286 227-418 117-78 198-151 188-169-5-8-4-10 3-5 25 15 118-160 136-254 6-31 3-28-22 22-85 163-194 283-331 364-189 111-269 235-259 401 10 153 106 263 283 324 72 25 81 24 62-5zm1166-6c5 0 5-4 2-10-3-5 0-7 8-4 19 7 129-69 162-111 52-69 69-123 69-215 0-75-3-93-32-151-39-80-139-179-227-224-33-16-94-63-136-102-42-40-80-69-84-65-5 4-5 1-1-5 4-7-4-28-19-47-14-19-46-69-71-112-42-73-45-76-39-39 8 45 63 166 97 210 48 63 136 142 223 200 161 107 235 204 243 317 7 95-41 196-132 279-36 33-112 76-120 68-3-3 4-30 16-60 42-110 20-255-51-323-14-14-52-34-84-45-83-29-191-112-250-191-11-15-9-9 4 15 12 22 32 51 43 64 29 32 130 103 192 134 90 46 144 127 144 218 0 39-36 168-51 184-5 5-9 17-9 27 0 16 3 16 48 3 26-8 51-15 55-15zm-844-617 22-38-30 35c-17 19-31 39-31 43 0 16 18-3 39-40zm-364-364c64-104 152-207 232-270l76-60-64 6c-225 24-362 85-376 167-9 57 4 100 48 162 22 31 41 56 43 56s20-27 41-61zm1220 20c40-49 65-104 65-148 0-79-91-143-245-174-106-21-203-31-190-20 6 5 31 26 57 46 94 75 206 205 252 295 9 17 20 32 25 32s21-14 36-31zm-564-455c28-14 79-69 79-85 0-5-19 3-42 18-37 25-51 28-124 28-78 0-84-2-124-34l-42-33 21 39c41 82 145 111 232 67zm13-289c34-15 101-74 92-82-2-3-19 6-36 19-29 21-42 23-161 24-70 1-126-2-124-6 2-3-10-14-27-24-29-18-30-18-20 0 17 32 47 54 103 74 58 22 113 20 173-5zm36-312c59-27 93-58 119-111 21-40 21-43 3-33-10 5-25 18-33 27-8 10-38 28-67 41-43 19-70 23-145 23-111 0-150-10-217-55-29-19-54-35-56-35-8 0 28 65 50 88 24 27 86 61 131 73 51 14 166 4 215-18zm-485-639c44-42 71-72 60-68-11 3-57 9-103 12-73 4-85 7-102 30-11 13-20 29-20 34 0 15 57 68 72 68 7 0 49-35 93-76zm836 55c33-23 39-62 12-91-12-14-31-18-78-18-34 0-83-6-108-14l-46-14 52 49c29 26 58 48 65 49 6 0 12 5 12 11 0 12 40 48 53 49 5 0 22-9 38-21z"/><path d="m1887 3196c-352-533-493-825-472-980 17-132 96-266 340-581 198-255 236-311 249-372 13-56-56-149-146-198-43-24-61-28-119-26-122 4-181-52-210-198-8-40-18-65-28-68-32-12-81-55-98-86-23-46-21-156 7-236 22-65 69-166 74-159 2 1 6 23 10 48 5 33 3 41-4 30-8-11-9-4-4 25 18 112 87 190 182 208 64 13 80 30 260 276l62 85v-38c0-38 12-53 91-120 10-9 19-28 19-43 0-30-42-108-66-121-12-7-17-33-21-109-7-128 11-192 71-254 38-39 141-97 152-86 3 2-5 20-16 40-24 41-28 112-9 159 7 18 27 56 45 85 26 41 32 59 27 86-7 44 12 96 86 241 53 103 61 126 61 175 0 107 46 146 75 64 33-91 74-173 99-198 30-30 81-33 128-9 78 40 165-38 219-199 7-20 18-36 24-34 36 11 78 174 62 239-11 41-64 112-110 147-44 32-45 34-35 69 12 45 4 101-23 155l-21 41 26 23c37 31 80 30 113-3l27-27 33 19c53 28 60 50 26 79-211 178-224 182-332 113-34-22-54-28-76-24s-26 3-15-4c13-8 13-10-1-10-37 0-89 27-182 93-85 60-105 81-152 152-113 173-173 327-182 465-12 190 62 333 261 497 50 42 92 79 93 82s-25 22-59 41c-81 46-217 175-272 258-70 106-136 265-136 329 0 13-6 23-12 22-7 0-61-73-121-163z"/><path d="m3831 1453c-31-119-144-264-271-348-98-65-121-96-146-190-21-78-17-355 5-355 3 0 18 19 33 43 15 23 50 67 78 97 56 60 57 59 25-50-33-112-6-249 63-323 36-38 45-34 38 16-11 75 28 213 63 225 11 4 12-5 7-39-15-100 40-287 119-409 42-64 100-128 110-119 2 3-1 36-7 74-13 89-6 193 16 231 10 16 36 40 58 54 63 39 100 94 113 164l11 61 14-64c12-57 11-71-5-137-10-41-15-77-12-80 4-4 40 27 82 69 82 82 118 146 136 243 22 119-5 215-87 301-22 24-37 43-32 43 18 0 70-32 109-67 22-20 42-33 45-30s1 22-6 41c-6 20-8 41-4 47 4 7 3 9-3 6-6-4-19 13-29 36-27 59-132 161-250 239-113 76-200 162-228 226-11 23-22 42-25 42-4 0-13-21-20-47z"/><path d="m2960 1475c-7-9-11-17-9-20 3-2 10 5 17 15 14 24 10 26-8 5z"/><path d="m3010 995c0-2 15-26 34-54 50-73 62-145 42-228-9-36-16-67-14-68 8-7 288-115 299-115 8 0 10 13 5 43-3 23-9 94-12 158l-7 115-61 23c-34 13-112 47-173 77-62 29-113 51-113 49z"/></g></svg>